<?xml version="1.0" encoding="UTF-8"?>
<svg version="1.1" xmlns="http://www.w3.org/2000/svg" width="512" height="512">
<path d="M0 0 C1.11785814 -0.00445784 2.23571628 -0.00891569 3.38744891 -0.01350862 C5.2220028 -0.01323207 5.2220028 -0.01323207 7.09361839 -0.01294994 C8.39686605 -0.01662663 9.7001137 -0.02030332 11.04285371 -0.02409142 C14.65882539 -0.03409131 18.27478046 -0.03782496 21.890764 -0.04048073 C25.79140726 -0.04438972 29.69203745 -0.05396759 33.59267235 -0.0626936 C43.01155748 -0.08244042 52.43044366 -0.09252161 61.84934431 -0.10142139 C66.2869747 -0.1058069 70.7246039 -0.111173 75.16223335 -0.11641026 C89.9171893 -0.13342018 104.67214452 -0.14791411 119.42710876 -0.155159 C123.25461516 -0.15706883 127.08212154 -0.15898917 130.90962791 -0.16094494 C132.33655362 -0.16167055 132.33655362 -0.16167055 133.79230611 -0.16241082 C149.20079327 -0.17071028 164.60920278 -0.19604685 180.01765604 -0.22852562 C195.84369268 -0.26161217 211.66968987 -0.27960917 227.49576128 -0.28280324 C236.37889954 -0.28496677 245.26192454 -0.29369259 254.14502907 -0.31926441 C261.71049466 -0.34099315 269.27581946 -0.34901112 276.84131272 -0.33929763 C280.6989279 -0.33475931 284.55625272 -0.33661162 288.4138279 -0.35605907 C292.60286752 -0.37699452 296.79126595 -0.36668515 300.98033714 -0.35352612 C302.18998874 -0.36449536 303.39964034 -0.37546461 304.64594805 -0.38676625 C316.32087807 -0.29838433 324.83710029 2.60801289 333.2538662 10.77093983 C340.86518398 19.08293849 342.67930504 27.64597673 342.8319912 38.66547108 C342.86104042 39.9802544 342.86104042 39.9802544 342.8906765 41.32159901 C342.9499549 44.0923773 342.99664857 46.86319832 343.0429287 49.63422108 C343.08115621 51.52486314 343.12021064 53.41548868 343.1601162 55.30609608 C343.25561319 59.91533517 343.33983275 64.52465565 343.4179287 69.13422108 C364.6647037 57.34845284 385.89133713 45.52775242 407.0429287 33.57172108 C407.97193993 33.04715321 408.90095116 32.52258533 409.85811424 31.98212147 C414.83350672 29.17043113 419.80022289 26.34445317 424.75777245 23.50140858 C425.79917381 22.9065868 426.84057518 22.31176502 427.91353416 21.69891834 C429.9059693 20.5605879 431.89602454 19.41807806 433.88326073 18.27069569 C442.56286589 13.32147071 449.77061397 10.65208679 459.8163662 12.59906483 C466.26687874 14.45936623 471.13664666 17.59446219 474.80674016 23.28917503 C478.13748507 29.57432464 479.13837054 34.54482852 479.05284691 41.60858631 C479.06064686 42.61462878 479.06844682 43.62067125 479.07648313 44.65719986 C479.09630603 48.00278581 479.08067597 51.34722197 479.06490135 54.69281483 C479.07168174 57.10168588 479.08058723 59.51055175 479.09145164 61.91940784 C479.11184189 67.76759533 479.10891616 73.61542213 479.09438844 79.46362042 C479.08306693 84.21923434 479.08157782 88.97475842 479.08700752 93.73038197 C479.08815677 94.74812707 479.08815677 94.74812707 479.08932924 95.78643268 C479.09092797 97.16506206 479.09254903 98.5436914 479.09419219 99.92232072 C479.10842807 112.83032301 479.09209105 125.73814734 479.06519036 138.64612043 C479.04285347 149.70637064 479.04673421 160.76635841 479.06978416 171.82660389 C479.09658053 184.69042399 479.10705498 197.55408839 479.09172285 210.41793251 C479.09013021 211.79130838 479.08855835 213.16468427 479.08700752 214.53806019 C479.08585046 215.55148138 479.08585046 215.55148138 479.08467001 216.58537573 C479.08036449 221.33174741 479.08761469 226.0780198 479.09940529 230.82437611 C479.11387575 237.22020761 479.10378022 243.61554474 479.07493401 250.01132298 C479.06833711 252.35500614 479.07019684 254.6987311 479.08124733 257.0423975 C479.09496877 260.24877376 479.07770551 263.45357892 479.05284691 266.65985584 C479.06400052 267.58107951 479.07515413 268.50230318 479.08664572 269.45144272 C478.97478015 276.92124231 476.74048398 283.40709977 471.70849478 289.05180168 C465.50557111 294.93299652 458.86833025 296.43645633 450.5194912 296.63031483 C441.54774678 295.1952877 433.57243858 290.2015699 425.7929287 285.75922108 C424.1659304 284.8399181 424.1659304 284.8399181 422.50606346 283.90204334 C414.08040961 279.12545315 405.72631 274.22935373 397.37715721 269.32074451 C389.43201348 264.67214933 381.37162799 260.26550213 373.25948143 255.91644764 C363.20208214 250.51406366 353.29832563 244.85256318 343.4179287 239.13422108 C343.40334618 240.29357166 343.38876366 241.45292225 343.37373924 242.64740467 C343.31532571 246.99015063 343.23809907 251.33240119 343.15547752 255.67474842 C343.12242922 257.54641081 343.09433619 259.41816804 343.07149315 261.2899828 C342.88211392 276.40002727 342.33069758 287.57644918 331.6366787 299.04437733 C322.87528601 307.50055756 312.74574981 308.72884451 301.00725365 308.63542652 C299.69746831 308.64096092 298.38768297 308.64649531 297.03820717 308.65219742 C293.43178012 308.66685655 289.82579395 308.65682846 286.21938157 308.6424607 C282.31886807 308.63130019 278.41841387 308.64331013 274.51790428 308.65230274 C266.888883 308.66620202 259.26002776 308.65870397 251.63101445 308.64362716 C242.7404464 308.62672878 233.84991927 308.62998208 224.95934011 308.63372124 C209.09410309 308.63959358 193.22894555 308.62545195 177.36372948 308.60077381 C161.9795846 308.57684678 146.59554587 308.56977352 131.21138573 308.580266 C114.44353965 308.59168177 97.67574261 308.59359774 80.90789711 308.5791679 C79.11917886 308.57764212 77.33046059 308.57612176 75.54174232 308.5746069 C74.22173631 308.57347017 74.22173631 308.57347017 72.8750635 308.57231049 C66.68202712 308.5675734 60.48901268 308.56941496 54.29597664 308.57367229 C46.74743095 308.57860478 39.1989855 308.5725884 31.65046273 308.552778 C27.80121671 308.54292395 23.95212313 308.53778047 20.10286903 308.54567051 C15.92664763 308.5540555 11.75083077 308.53911369 7.57463646 308.52190113 C5.75755961 308.5309162 5.75755961 308.5309162 3.90377414 308.54011339 C-7.76637902 308.45262587 -16.61953866 305.44691734 -25.3398838 297.54047108 C-32.36523315 290.05617931 -34.18265584 281.24967049 -34.09000587 271.28021717 C-34.09624584 270.23333918 -34.1024858 269.18646118 -34.10891485 268.10785961 C-34.12478122 264.62422542 -34.11226504 261.1412971 -34.09964943 257.65765858 C-34.10507334 255.15026919 -34.11219751 252.642883 -34.12088966 250.13550282 C-34.13720567 244.04671222 -34.13485911 237.95818004 -34.1232391 231.8693862 C-34.11418375 226.91832107 -34.11298983 221.96731117 -34.11733437 217.01624012 C-34.1179473 216.30998977 -34.11856023 215.60373942 -34.11919174 214.87608755 C-34.12047071 213.44108818 -34.12176757 212.00608884 -34.1230821 210.57108951 C-34.13447213 197.13376259 -34.12139902 183.69654507 -34.09988064 170.2592361 C-34.08201106 158.74420239 -34.08511561 147.22933 -34.10355568 135.7142992 C-34.12499034 122.32311888 -34.13337364 108.93203428 -34.12110662 95.5408392 C-34.11983251 94.11129349 -34.11857502 92.68174777 -34.11733437 91.25220203 C-34.11671726 90.5489468 -34.11610016 89.84569157 -34.11546436 89.12112558 C-34.11201923 84.17940199 -34.11782168 79.23773942 -34.12725258 74.29602528 C-34.13968108 67.6376066 -34.13075776 60.97953849 -34.10767555 54.32113361 C-34.10239646 51.8806938 -34.10388847 49.4402283 -34.11272621 46.99979877 C-34.12369637 43.66226467 -34.10989903 40.32569787 -34.09000587 36.98822498 C-34.09892876 36.02809183 -34.10785165 35.06795868 -34.11704493 34.07873058 C-34.00315936 24.19255806 -30.71959047 16.34828627 -23.9336338 9.18109608 C-16.82466049 2.99321897 -9.35275414 0.01734875 0 0 Z " fill="#01A8F3" transform="translate(33.58207130432129,101.86577892303467)"/>
<path d="M0 0 C1.11785814 -0.00445784 2.23571628 -0.00891569 3.38744891 -0.01350862 C5.2220028 -0.01323207 5.2220028 -0.01323207 7.09361839 -0.01294994 C8.39686605 -0.01662663 9.7001137 -0.02030332 11.04285371 -0.02409142 C14.65882539 -0.03409131 18.27478046 -0.03782496 21.890764 -0.04048073 C25.79140726 -0.04438972 29.69203745 -0.05396759 33.59267235 -0.0626936 C43.01155748 -0.08244042 52.43044366 -0.09252161 61.84934431 -0.10142139 C66.2869747 -0.1058069 70.7246039 -0.111173 75.16223335 -0.11641026 C89.9171893 -0.13342018 104.67214452 -0.14791411 119.42710876 -0.155159 C123.25461516 -0.15706883 127.08212154 -0.15898917 130.90962791 -0.16094494 C132.33655362 -0.16167055 132.33655362 -0.16167055 133.79230611 -0.16241082 C149.20079327 -0.17071028 164.60920278 -0.19604685 180.01765604 -0.22852562 C195.84369268 -0.26161217 211.66968987 -0.27960917 227.49576128 -0.28280324 C236.37889954 -0.28496677 245.26192454 -0.29369259 254.14502907 -0.31926441 C261.71049466 -0.34099315 269.27581946 -0.34901112 276.84131272 -0.33929763 C280.6989279 -0.33475931 284.55625272 -0.33661162 288.4138279 -0.35605907 C292.60286752 -0.37699452 296.79126595 -0.36668515 300.98033714 -0.35352612 C302.18998874 -0.36449536 303.39964034 -0.37546461 304.64594805 -0.38676625 C316.32087807 -0.29838433 324.83710029 2.60801289 333.2538662 10.77093983 C340.86518398 19.08293849 342.67930504 27.64597673 342.8319912 38.66547108 C342.86104042 39.9802544 342.86104042 39.9802544 342.8906765 41.32159901 C342.9499549 44.0923773 342.99664857 46.86319832 343.0429287 49.63422108 C343.08115621 51.52486314 343.12021064 53.41548868 343.1601162 55.30609608 C343.25561319 59.91533517 343.33983275 64.52465565 343.4179287 69.13422108 C364.6647037 57.34845284 385.89133713 45.52775242 407.0429287 33.57172108 C407.97193993 33.04715321 408.90095116 32.52258533 409.85811424 31.98212147 C414.83350672 29.17043113 419.80022289 26.34445317 424.75777245 23.50140858 C425.79917381 22.9065868 426.84057518 22.31176502 427.91353416 21.69891834 C429.9059693 20.5605879 431.89602454 19.41807806 433.88326073 18.27069569 C442.56286589 13.32147071 449.77061397 10.65208679 459.8163662 12.59906483 C466.26687874 14.45936623 471.13664666 17.59446219 474.80674016 23.28917503 C478.13748507 29.57432464 479.13837054 34.54482852 479.05284691 41.60858631 C479.06064686 42.61462878 479.06844682 43.62067125 479.07648313 44.65719986 C479.09630603 48.00278581 479.08067597 51.34722197 479.06490135 54.69281483 C479.07168174 57.10168588 479.08058723 59.51055175 479.09145164 61.91940784 C479.11184189 67.76759533 479.10891616 73.61542213 479.09438844 79.46362042 C479.08306693 84.21923434 479.08157782 88.97475842 479.08700752 93.73038197 C479.08815677 94.74812707 479.08815677 94.74812707 479.08932924 95.78643268 C479.09092797 97.16506206 479.09254903 98.5436914 479.09419219 99.92232072 C479.10842807 112.83032301 479.09209105 125.73814734 479.06519036 138.64612043 C479.04285347 149.70637064 479.04673421 160.76635841 479.06978416 171.82660389 C479.09658053 184.69042399 479.10705498 197.55408839 479.09172285 210.41793251 C479.09013021 211.79130838 479.08855835 213.16468427 479.08700752 214.53806019 C479.08585046 215.55148138 479.08585046 215.55148138 479.08467001 216.58537573 C479.08036449 221.33174741 479.08761469 226.0780198 479.09940529 230.82437611 C479.11387575 237.22020761 479.10378022 243.61554474 479.07493401 250.01132298 C479.06833711 252.35500614 479.07019684 254.6987311 479.08124733 257.0423975 C479.09496877 260.24877376 479.07770551 263.45357892 479.05284691 266.65985584 C479.06400052 267.58107951 479.07515413 268.50230318 479.08664572 269.45144272 C478.97478015 276.92124231 476.74048398 283.40709977 471.70849478 289.05180168 C465.50557111 294.93299652 458.86833025 296.43645633 450.5194912 296.63031483 C441.54774678 295.1952877 433.57243858 290.2015699 425.7929287 285.75922108 C424.1659304 284.8399181 424.1659304 284.8399181 422.50606346 283.90204334 C414.08040961 279.12545315 405.72631 274.22935373 397.37715721 269.32074451 C389.43201348 264.67214933 381.37162799 260.26550213 373.25948143 255.91644764 C363.20208214 250.51406366 353.29832563 244.85256318 343.4179287 239.13422108 C343.40334618 240.29357166 343.38876366 241.45292225 343.37373924 242.64740467 C343.31532571 246.99015063 343.23809907 251.33240119 343.15547752 255.67474842 C343.12242922 257.54641081 343.09433619 259.41816804 343.07149315 261.2899828 C342.88211392 276.40002727 342.33069758 287.57644918 331.6366787 299.04437733 C322.87528601 307.50055756 312.74574981 308.72884451 301.00725365 308.63542652 C299.69746831 308.64096092 298.38768297 308.64649531 297.03820717 308.65219742 C293.43178012 308.66685655 289.82579395 308.65682846 286.21938157 308.6424607 C282.31886807 308.63130019 278.41841387 308.64331013 274.51790428 308.65230274 C266.888883 308.66620202 259.26002776 308.65870397 251.63101445 308.64362716 C242.7404464 308.62672878 233.84991927 308.62998208 224.95934011 308.63372124 C209.09410309 308.63959358 193.22894555 308.62545195 177.36372948 308.60077381 C161.9795846 308.57684678 146.59554587 308.56977352 131.21138573 308.580266 C114.44353965 308.59168177 97.67574261 308.59359774 80.90789711 308.5791679 C79.11917886 308.57764212 77.33046059 308.57612176 75.54174232 308.5746069 C74.22173631 308.57347017 74.22173631 308.57347017 72.8750635 308.57231049 C66.68202712 308.5675734 60.48901268 308.56941496 54.29597664 308.57367229 C46.74743095 308.57860478 39.1989855 308.5725884 31.65046273 308.552778 C27.80121671 308.54292395 23.95212313 308.53778047 20.10286903 308.54567051 C15.92664763 308.5540555 11.75083077 308.53911369 7.57463646 308.52190113 C5.75755961 308.5309162 5.75755961 308.5309162 3.90377414 308.54011339 C-7.76637902 308.45262587 -16.61953866 305.44691734 -25.3398838 297.54047108 C-32.36523315 290.05617931 -34.18265584 281.24967049 -34.09000587 271.28021717 C-34.09624584 270.23333918 -34.1024858 269.18646118 -34.10891485 268.10785961 C-34.12478122 264.62422542 -34.11226504 261.1412971 -34.09964943 257.65765858 C-34.10507334 255.15026919 -34.11219751 252.642883 -34.12088966 250.13550282 C-34.13720567 244.04671222 -34.13485911 237.95818004 -34.1232391 231.8693862 C-34.11418375 226.91832107 -34.11298983 221.96731117 -34.11733437 217.01624012 C-34.1179473 216.30998977 -34.11856023 215.60373942 -34.11919174 214.87608755 C-34.12047071 213.44108818 -34.12176757 212.00608884 -34.1230821 210.57108951 C-34.13447213 197.13376259 -34.12139902 183.69654507 -34.09988064 170.2592361 C-34.08201106 158.74420239 -34.08511561 147.22933 -34.10355568 135.7142992 C-34.12499034 122.32311888 -34.13337364 108.93203428 -34.12110662 95.5408392 C-34.11983251 94.11129349 -34.11857502 92.68174777 -34.11733437 91.25220203 C-34.11671726 90.5489468 -34.11610016 89.84569157 -34.11546436 89.12112558 C-34.11201923 84.17940199 -34.11782168 79.23773942 -34.12725258 74.29602528 C-34.13968108 67.6376066 -34.13075776 60.97953849 -34.10767555 54.32113361 C-34.10239646 51.8806938 -34.10388847 49.4402283 -34.11272621 46.99979877 C-34.12369637 43.66226467 -34.10989903 40.32569787 -34.09000587 36.98822498 C-34.09892876 36.02809183 -34.10785165 35.06795868 -34.11704493 34.07873058 C-34.00315936 24.19255806 -30.71959047 16.34828627 -23.9336338 9.18109608 C-16.82466049 2.99321897 -9.35275414 0.01734875 0 0 Z M-12.9570713 23.63422108 C-15.37550228 27.35488412 -16.83041247 29.98616902 -16.84213352 34.47717381 C-16.84919911 35.34408651 -16.8562647 36.21099922 -16.8635444 37.104182 C-16.86112932 38.05202886 -16.85871424 38.99987571 -16.85622597 39.9764452 C-16.86146265 40.98693936 -16.86669932 41.99743351 -16.87209469 43.03854871 C-16.88713241 46.43473702 -16.88780068 49.83077516 -16.88846779 53.22699451 C-16.89608677 55.65792566 -16.90451382 58.08885439 -16.91369057 60.51978016 C-16.9356692 67.13144245 -16.9444608 73.74306908 -16.94951701 80.35475922 C-16.95277476 84.48429753 -16.95929774 88.61382652 -16.9665184 92.74335957 C-16.9860843 104.18017114 -17.00248838 115.61697406 -17.00539494 127.05380344 C-17.00558251 127.78561805 -17.00577008 128.51743266 -17.00596333 129.27142347 C-17.00632958 130.75495132 -17.00669327 132.23847916 -17.00705444 133.72200701 C-17.00723725 134.45841851 -17.00742006 135.19483001 -17.00760841 135.95355701 C-17.00778896 136.69086899 -17.00796951 137.42818096 -17.00815553 138.18783572 C-17.01169646 150.13239876 -17.03871367 162.07678143 -17.0761063 174.02128193 C-17.11420254 186.28887148 -17.13355251 198.55637157 -17.13385445 210.82402158 C-17.13443875 217.71012217 -17.14291282 224.59600764 -17.17185211 231.4820528 C-17.19895045 237.95978497 -17.20025955 244.43720344 -17.18419647 250.91497517 C-17.1823788 253.29176225 -17.18910118 255.66857361 -17.20501518 258.04530811 C-17.2254281 261.29206511 -17.21495048 264.53732461 -17.19680214 267.78406239 C-17.21660209 269.19244834 -17.21660209 269.19244834 -17.23680204 270.62928653 C-17.15617816 276.95131097 -15.70563822 281.27160469 -11.5820713 286.13422108 C-6.83295821 289.83852929 -3.30879494 291.25716264 2.65296268 291.26844215 C4.28997624 291.27512892 4.28997624 291.27512892 5.96006078 291.28195077 C7.16373211 291.28176641 8.36740344 291.28158205 9.60754967 291.2813921 C11.52015562 291.28690713 11.52015562 291.28690713 13.47140008 291.29253358 C17.0178713 291.3025574 20.56432559 291.30627098 24.11080897 291.30892289 C27.93303817 291.31282481 31.75525395 291.32240323 35.57747459 291.33113575 C44.81178615 291.3509034 54.04609881 291.36096678 63.28042623 291.36986354 C67.62829168 291.37424598 71.9761559 291.3796129 76.32402039 291.38485241 C90.77608519 291.40186504 105.22814923 291.41635941 119.68022251 291.42360115 C123.43108878 291.42551107 127.18195503 291.4274314 130.93282127 291.42938709 C131.86508871 291.42987083 132.79735614 291.43035457 133.75787411 291.43085297 C148.86135585 291.43915399 163.9647584 291.46449195 179.06820556 291.49696777 C194.5721109 291.53003307 210.07597599 291.54804943 225.57991678 291.55124539 C234.28581451 291.55341099 242.99159678 291.56216686 251.69746017 291.58770657 C259.11154588 291.60940635 266.52548807 291.61746757 273.93960192 291.60773978 C277.72189875 291.60319294 281.50389943 291.60510329 285.2861557 291.62450123 C289.38877563 291.64536032 293.49073791 291.63515457 297.59338951 291.62196827 C298.78590724 291.63293752 299.97842496 291.64390676 301.20707959 291.65520841 C308.50945358 291.59846994 314.51688988 290.86297332 319.9691512 285.6515072 C323.29180493 281.86504867 324.54036584 278.84771208 324.55214977 273.89311218 C324.55883654 272.58865451 324.55883654 272.58865451 324.56565839 271.25784415 C324.56547403 270.30182927 324.56528967 269.34581438 324.56509972 268.36082935 C324.57061475 266.83812773 324.57061475 266.83812773 324.5762412 265.28466445 C324.5872962 261.86691721 324.59112494 258.44920034 324.59493065 255.03143787 C324.60119384 252.58755871 324.60784051 250.14368051 324.61484337 247.69980335 C324.63408216 240.35502344 324.64467251 233.01025159 324.65357116 225.66545388 C324.65795456 222.20693527 324.66332118 218.74841818 324.66856003 215.28990078 C324.68557057 203.79393519 324.7000654 192.29797056 324.70730877 180.80199432 C324.70921867 177.81906794 324.711139 174.83614157 324.71309471 171.85321522 C324.71357845 171.11182251 324.71406219 170.3704298 324.71456059 169.60657064 C324.72286341 157.59272769 324.74820532 145.57898423 324.78067539 133.56518473 C324.81373683 121.23210344 324.83175664 108.89907273 324.83495301 96.56594688 C324.83711881 89.64079862 324.84587769 82.71579551 324.87141418 75.79069042 C324.89537549 69.2777214 324.89895265 62.76496686 324.8886528 56.25194645 C324.88815587 53.85980772 324.89452229 51.46765638 324.90820885 49.07555676 C324.92583383 45.81290958 324.91886727 42.55121065 324.90567589 39.28856373 C324.91664513 38.33924101 324.92761438 37.38991829 324.93891603 36.41182822 C324.88410299 30.80677768 324.17600839 27.57262381 320.4179287 23.13422108 C315.65179015 18.73470858 311.41579874 16.88661561 304.93679905 16.87695217 C303.84147458 16.87050328 302.74615012 16.86405439 301.617634 16.85741007 C300.41978835 16.86050728 299.2219427 16.86360448 297.98779869 16.86679554 C296.7110192 16.86226443 295.43423972 16.85773331 294.11876994 16.85306489 C290.57679299 16.84083031 287.03491045 16.84109589 283.49291718 16.84345365 C279.67207898 16.8438617 275.85127109 16.83282377 272.03044701 16.82333851 C264.54537281 16.80672497 257.06033011 16.8012288 249.57523903 16.80011375 C243.49084896 16.79916343 237.40646929 16.79505395 231.32208252 16.7887125 C214.0714969 16.77109903 196.82093617 16.76187378 179.57034149 16.76337345 C178.64034068 16.76345336 177.71033987 16.76353327 176.75215721 16.76361561 C175.35545256 16.76373825 175.35545256 16.76373825 173.93053166 16.76386337 C158.84010515 16.76467627 143.74977845 16.74553781 128.65938082 16.71733887 C113.16444673 16.68861249 97.66956133 16.67479845 82.17459995 16.67652643 C73.47544599 16.67719042 64.77639667 16.6716941 56.07726669 16.65017033 C48.67054103 16.63196173 41.26396743 16.6276085 33.85722908 16.64118917 C30.07897462 16.64772054 26.30101191 16.64783026 22.52278519 16.63048267 C18.42463906 16.61185991 14.32716881 16.62430196 10.22900963 16.63974476 C9.03785614 16.62945763 7.84670266 16.61917051 6.61945361 16.60857165 C-1.36481224 16.67514117 -7.2223078 17.59762791 -12.9570713 23.63422108 Z " fill="#000000" transform="translate(33.58207130432129,101.86577892303467)"/>
<path d="M0 0 C2.16154287 -0.00958556 4.32208298 -0.040598 6.48339844 -0.07226562 C43.42249602 -0.34998337 75.98978791 16.33301299 101.87841797 41.76416016 C105.70294286 45.66087022 109.05051963 49.88120037 112.32714844 54.24023438 C112.72498535 54.76311035 113.12282227 55.28598633 113.53271484 55.82470703 C118.6155673 62.54168763 123.28357183 69.49230809 127.57714844 76.74023438 C128.18816406 77.72769653 128.18816406 77.72769653 128.81152344 78.73510742 C130.59306643 81.84843333 131.42206722 83.67941654 130.81542969 87.26367188 C129.08976129 90.71500867 127.27535828 94.07377395 125.26464844 97.36523438 C124.66583862 98.35027954 124.66583862 98.35027954 124.05493164 99.35522461 C107.36240017 126.39168487 85.18873583 146.99049751 56.32714844 160.24023438 C54.8228125 160.96339844 54.8228125 160.96339844 53.28808594 161.70117188 C28.36554161 173.02960111 -6.64672496 174.50469314 -32.67285156 166.24023438 C-33.35508789 166.02592773 -34.03732422 165.81162109 -34.74023438 165.59082031 C-39.49234004 164.04722854 -44.09575266 162.24085849 -48.67285156 160.24023438 C-49.33381836 159.95164551 -49.99478516 159.66305664 -50.67578125 159.36572266 C-66.40064625 152.33931488 -79.3771563 142.19054494 -91.67285156 130.24023438 C-92.50272583 129.44431885 -92.50272583 129.44431885 -93.34936523 128.63232422 C-97.61243205 124.47670008 -101.38135795 120.10062376 -104.98535156 115.36523438 C-105.81631348 114.27408325 -105.81631348 114.27408325 -106.6640625 113.16088867 C-110.54668261 107.96306166 -114.10116549 102.62502974 -117.42285156 97.05273438 C-118.04994019 96.01173584 -118.04994019 96.01173584 -118.68969727 94.94970703 C-120.90832008 91.10334383 -122.66688501 87.78077855 -122.67285156 83.24023438 C-121.5661518 80.54955194 -120.46807401 78.33053525 -118.98535156 75.86523438 C-118.58251953 75.17478027 -118.1796875 74.48432617 -117.76464844 73.77294922 C-110.71752183 61.99486583 -102.15787235 51.14294415 -92.67285156 41.24023438 C-91.63451172 40.12455078 -91.63451172 40.12455078 -90.57519531 38.98632812 C-67.03968051 14.42567293 -33.91482381 0.09047974 0 0 Z " fill="#F3F3F3" transform="translate(183.6728515625,170.759765625)"/>
<path d="M0 0 C1.33514648 -0.01160156 1.33514648 -0.01160156 2.69726562 -0.0234375 C20.37174333 0.02820451 36.63731935 7.3849288 49.5625 19.25 C63.47253398 33.43731041 70.11425627 51.23928229 70.05517578 70.94262695 C69.4442894 89.96547714 60.50985906 106.52535716 47.06640625 119.6953125 C31.39620875 133.43292992 12.56979057 137.33003905 -7.78417969 136.47216797 C-23.69663435 135.1397854 -37.37350714 126.2560662 -48.4375 115.25 C-49.06269531 114.65960938 -49.68789062 114.06921875 -50.33203125 113.4609375 C-63.15671382 100.31780909 -66.94262582 82.36243257 -66.78515625 64.67944336 C-66.30423441 45.29228164 -58.23306648 30.44237528 -44.4375 17.25 C-43.65761719 16.49976563 -42.87773437 15.74953125 -42.07421875 14.9765625 C-30.4464108 4.77535956 -15.26048273 -0.13203013 0 0 Z " fill="#01A6F0" transform="translate(186.4375,187.75)"/>
<path d="M0 0 C0 69.96 0 139.92 0 212 C-18.29848346 202.85075827 -18.29848346 202.85075827 -26.9375 197.875 C-28.90198057 196.75326997 -30.86683866 195.6322009 -32.83203125 194.51171875 C-33.83572754 193.93856934 -34.83942383 193.36541992 -35.87353516 192.77490234 C-39.09819587 190.94425394 -42.33396851 189.13493114 -45.57421875 187.33203125 C-47.2149939 186.4186499 -47.2149939 186.4186499 -48.88891602 185.48681641 C-50.97031444 184.32952434 -53.05275119 183.17409671 -55.13647461 182.02099609 C-57.04065168 180.96028533 -58.92852797 179.86955688 -60.79544067 178.74455261 C-63.93951762 176.9056388 -63.93951762 176.9056388 -67.36582947 175.90830994 C-71.51453236 174.24846794 -74.50207723 172.79135357 -77 169 C-79.44747164 160.6610036 -78.78419586 151.55493729 -78.64743686 142.94337225 C-78.60313908 139.45212243 -78.62510657 135.96118105 -78.63722229 132.46975708 C-78.64712729 126.60997003 -78.60448597 120.75235121 -78.5300293 114.89306641 C-78.44467684 108.12770046 -78.44130623 101.36605936 -78.4820208 94.6003617 C-78.51949502 88.07732476 -78.50030427 81.555637 -78.45497322 75.03268814 C-78.43662884 72.26296472 -78.43773714 69.49427039 -78.45464897 66.72454453 C-78.47511792 62.85513577 -78.41257993 58.98946678 -78.34155273 55.12060547 C-78.35708191 53.97655243 -78.37261108 52.83249939 -78.38861084 51.65377808 C-78.29047212 48.46570524 -78.11697495 45.99012126 -77 43 C-73.96839403 40.22938458 -70.74473407 38.62301325 -67 37 C-65.99372559 36.42443359 -64.98745117 35.84886719 -63.95068359 35.25585938 C-63.10844238 34.78986328 -62.26620117 34.32386719 -61.3984375 33.84375 C-60.42583984 33.30322998 -59.45324219 32.76270996 -58.45117188 32.20581055 C-57.43603516 31.64289307 -56.42089844 31.07997559 -55.375 30.5 C-46.68789746 25.66439568 -38.0687213 20.72970665 -29.5 15.6875 C-2.8024656 0 -2.8024656 0 0 0 Z " fill="#9C9C9C" transform="translate(452,150)"/>
<path d="M0 0 C1.72374491 0.51503775 3.44771689 1.02931594 5.171875 1.54296875 C30.04761926 9.19051137 49.99811936 22.28120455 69 40 C70.10988281 41.02867187 70.10988281 41.02867187 71.2421875 42.078125 C84.61811934 54.93044385 95.18595252 70.80308521 104.1875 86.9375 C104.58662598 87.62303955 104.98575195 88.3085791 105.39697266 89.01489258 C107.60858379 93.12266872 108.5454406 96.20761968 107.62524414 100.97485352 C106.45499068 104.76526839 104.61981634 108.0865638 102.625 111.5 C102.17946777 112.27827148 101.73393555 113.05654297 101.27490234 113.85839844 C84.54347229 142.62922166 62.23807932 166.80960902 33 183 C31.88109375 183.62777344 30.7621875 184.25554687 29.609375 184.90234375 C-3.39646855 202.44149549 -45.24994915 204.96720129 -80.80908203 194.72705078 C-109.26466259 185.93318293 -136.33748372 167.25572982 -155 144 C-155.75667969 143.06929687 -156.51335937 142.13859375 -157.29296875 141.1796875 C-163.91660929 132.88874817 -169.58949655 124.11918682 -175 115 C-175.36851074 114.39027344 -175.73702148 113.78054688 -176.11669922 113.15234375 C-177.14025255 111.44720228 -178.13336037 109.72389666 -179.125 108 C-179.68445313 107.030625 -180.24390625 106.06125 -180.8203125 105.0625 C-182.55128962 100.56883753 -182.88206599 96.56739668 -181.32226562 92.02734375 C-180.36836123 89.95471347 -179.31359705 87.98427684 -178.1875 86 C-177.78660156 85.27087402 -177.38570312 84.54174805 -176.97265625 83.79052734 C-166.02487122 64.30027968 -151.50870127 45.05671932 -134 31 C-133.05769531 30.23171875 -132.11539063 29.4634375 -131.14453125 28.671875 C-113.28331271 14.36067782 -93.32443331 4.13342584 -71 -1 C-70.34644531 -1.16371094 -69.69289063 -1.32742187 -69.01953125 -1.49609375 C-47.77349303 -6.71063863 -20.82883376 -6.74689725 0 0 Z M-77 18 C-78.81371094 18.57621094 -78.81371094 18.57621094 -80.6640625 19.1640625 C-83.8589406 20.30675613 -86.91414996 21.58998612 -90 23 C-90.61504395 23.27682617 -91.23008789 23.55365234 -91.86376953 23.83886719 C-107.11780359 30.78446478 -119.62193755 40.04183035 -131.62353516 51.67480469 C-132.78674126 52.79468456 -133.97476283 53.88870269 -135.16796875 54.9765625 C-144.64256694 63.84556781 -152.06141117 75.04310299 -158.6875 86.125 C-159.10950684 86.82294678 -159.53151367 87.52089355 -159.96630859 88.23999023 C-162.20717153 92.10330524 -164 95.43060296 -164 100 C-162.89325909 102.69078249 -161.7954524 104.90972137 -160.3125 107.375 C-159.90821777 108.0669043 -159.50393555 108.75880859 -159.08740234 109.47167969 C-151.50298737 122.13430537 -142.21588458 133.39182546 -132 144 C-131.41089844 144.64066406 -130.82179687 145.28132812 -130.21484375 145.94140625 C-110.86714615 166.43000003 -79.82880506 181.84256171 -51.54345703 183.16113281 C-48.13792701 183.19890859 -44.73286684 183.23114842 -41.32714844 183.24023438 C-39.16560557 183.24981993 -37.00506545 183.28083237 -34.84375 183.3125 C-24.88647683 183.38728921 -15.72305871 182.18206344 -6 180 C-4.50980347 179.66560913 -4.50980347 179.66560913 -2.98950195 179.32446289 C26.06738238 172.44679979 52.04656012 153.4473887 70 130 C70.73863281 129.06542969 71.47726562 128.13085938 72.23828125 127.16796875 C76.48746816 121.68585713 80.34329049 116.05019441 83.9375 110.125 C84.31519531 109.50657227 84.69289063 108.88814453 85.08203125 108.25097656 C88.26902994 102.90092026 88.26902994 102.90092026 90 97 C88.89098497 94.19699499 87.81340298 92.02585364 86.25 89.5 C85.62689941 88.45114624 85.62689941 88.45114624 84.99121094 87.38110352 C66.01328516 55.96090842 37.32215876 27.00452825 0.79638672 17.421875 C-24.62765902 11.20115374 -51.83827925 9.98217528 -77 18 Z " fill="#010203" transform="translate(225,158)"/>
<path d="M0 0 C1.33514648 -0.01160156 1.33514648 -0.01160156 2.69726562 -0.0234375 C20.37174333 0.02820451 36.63731935 7.3849288 49.5625 19.25 C63.47253398 33.43731041 70.11425627 51.23928229 70.05517578 70.94262695 C69.4442894 89.96547714 60.50985906 106.52535716 47.06640625 119.6953125 C31.39620875 133.43292992 12.56979057 137.33003905 -7.78417969 136.47216797 C-23.69663435 135.1397854 -37.37350714 126.2560662 -48.4375 115.25 C-49.06269531 114.65960938 -49.68789062 114.06921875 -50.33203125 113.4609375 C-63.15671382 100.31780909 -66.94262582 82.36243257 -66.78515625 64.67944336 C-66.30423441 45.29228164 -58.23306648 30.44237528 -44.4375 17.25 C-43.65761719 16.49976563 -42.87773437 15.74953125 -42.07421875 14.9765625 C-30.4464108 4.77535956 -15.26048273 -0.13203013 0 0 Z M-37.58984375 33.953125 C-45.85939349 44.2332418 -50.02793277 54.8906831 -49.9375 68 C-49.93177979 68.96647461 -49.92605957 69.93294922 -49.92016602 70.92871094 C-49.57120819 84.95752065 -43.62421011 95.65095801 -34.25 105.9375 C-24.17486507 115.49306519 -12.12355834 119.75318634 1.52929688 119.60180664 C15.05774422 119.14118915 29.12931216 114.31530867 38.5625 104.25 C48.43686267 92.95803081 53.21489473 79.91531045 52.83984375 64.98828125 C51.86633687 51.86650544 46.31383411 39.30800531 36.5625 30.25 C24.02535753 19.70324328 9.64517906 16.32375406 -6.44384766 17.07519531 C-18.34421237 18.11862675 -29.55134895 25.43595186 -37.58984375 33.953125 Z " fill="#020303" transform="translate(186.4375,187.75)"/>
<path d="M0 0 C2.74965867 2.00379455 4.68062756 3.59318943 5.45695019 7.01282978 C5.64110954 9.54287989 5.6565781 12.02843586 5.62145996 14.56506348 C5.63104319 16.01788278 5.63104319 16.01788278 5.64082003 17.50005198 C5.65609178 20.74850073 5.63559347 23.99573415 5.61523438 27.24414062 C5.6187349 29.57171534 5.62439269 31.89928767 5.63204956 34.22685242 C5.64631688 40.55122893 5.62921647 46.87517169 5.60576439 53.19950676 C5.58771793 59.14281498 5.5909001 65.0860843 5.59324223 71.02941376 C5.59693209 82.80630467 5.57610973 94.58302681 5.54199219 106.35986328 C5.508901 117.78666449 5.49473392 129.21328856 5.50097656 140.64013672 C5.50846287 154.41118779 5.50109201 168.18213442 5.47932434 181.95317078 C5.4711421 187.21303903 5.46844232 192.47286822 5.47001648 197.73274231 C5.47089437 203.92484638 5.45670465 210.11673828 5.43078995 216.30878639 C5.42361779 218.58361088 5.42154955 220.85845793 5.42490768 223.13329124 C5.42861247 226.23407112 5.41390927 229.33422838 5.39440918 232.43493652 C5.40240107 233.79120643 5.40240107 233.79120643 5.41055441 235.17487574 C5.35889863 239.92279078 5.1253235 243.16316817 2 247 C-2.63663761 249.3183188 -6.50971152 248.47284167 -11.24237633 246.97125244 C-19.95249895 242.85939438 -19.95249895 242.85939438 -21.75949907 237.92677307 C-23.04722557 231.33686907 -22.76869172 224.60470151 -22.68212891 217.921875 C-22.6997533 215.64794179 -22.72290512 213.3740457 -22.75115967 211.10021973 C-22.81037437 204.93413643 -22.78747506 198.77088367 -22.74623156 192.60475159 C-22.71329005 186.14885903 -22.74384998 179.69320689 -22.76425171 173.23730469 C-22.78940947 161.70178535 -22.7490418 150.167712 -22.68288033 138.63241911 C-22.62479978 128.1826944 -22.63488929 117.73484709 -22.69482422 107.28515625 C-22.7644666 95.13735586 -22.79025461 82.99102829 -22.75186479 70.84299088 C-22.73160897 64.41712628 -22.72885892 57.99255374 -22.77183914 51.56677246 C-22.80943248 45.52442406 -22.78329124 39.48561556 -22.70821381 33.44364929 C-22.69104257 31.22818377 -22.69593301 29.01241959 -22.72462845 26.79707336 C-22.91596781 10.52340883 -22.91596781 10.52340883 -19.71715498 6.31044006 C-14.34662048 1.45367068 -7.15705331 -1.6614588 0 0 Z " fill="#525A5E" transform="translate(490,132)"/>
<path d="M0 0 C39.73815244 -0.09155336 79.47629113 -0.16203763 119.21452796 -0.20426132 C123.90587689 -0.20926415 128.5972256 -0.21444144 133.28857422 -0.21972656 C134.22253816 -0.2207758 135.1565021 -0.22182505 136.11876798 -0.22290608 C151.24183439 -0.24031181 166.36484 -0.27185043 181.48787034 -0.30861118 C197.00523545 -0.34601592 212.52256872 -0.36823487 228.03997707 -0.37635398 C237.61524007 -0.38184272 247.19033117 -0.39917909 256.76554126 -0.43166587 C263.33142449 -0.45280798 269.89721883 -0.45920073 276.46313363 -0.45400551 C280.25149111 -0.45144325 284.03954817 -0.45537387 287.82785225 -0.4768219 C291.93718896 -0.49991734 296.04588655 -0.49194786 300.15527344 -0.48101807 C301.34983752 -0.49266943 302.54440161 -0.5043208 303.7751646 -0.51632524 C311.06765155 -0.46382375 317.15322525 0.23507161 322.55114365 5.51814055 C325.64666085 9.10600672 327.12368965 11.44730262 327.13142776 16.11806107 C327.13526891 16.98570847 327.13911005 17.85335587 327.1430676 18.74729562 C327.14220112 19.70622334 327.14133463 20.66515107 327.14044189 21.65313721 C327.14489858 23.1745572 327.14489858 23.1745572 327.1494453 24.72671294 C327.15816202 28.14756944 327.15964305 31.56839107 327.16113281 34.98925781 C327.16575891 37.43298925 327.17078328 39.87671997 327.17617798 42.32044983 C327.1893246 48.97548204 327.19578787 55.63050051 327.20018864 62.28554249 C327.20294965 66.44017731 327.20718678 70.59480981 327.21169281 74.74944305 C327.2238876 86.24965901 327.23418602 97.74987309 327.2375679 109.25009537 C327.23778747 109.98645095 327.23800703 110.72280654 327.23823325 111.48147593 C327.23845153 112.21960903 327.23866981 112.95774212 327.2388947 113.71824288 C327.23933817 115.21401739 327.23978473 116.7097919 327.24023438 118.20556641 C327.2404558 118.94752462 327.24067723 119.68948283 327.24090537 120.45392463 C327.24485273 132.47427805 327.26230389 144.49457083 327.2855939 156.51490083 C327.3093058 168.85247093 327.3217697 181.19001061 327.32293582 193.52760386 C327.32385275 200.45609128 327.32960945 207.38449972 327.34775543 214.31296539 C327.36476347 220.83000353 327.36641021 227.34691814 327.35761642 233.86398125 C327.35684398 236.25772693 327.36121593 238.65148056 327.37107468 241.04520607 C327.3837335 244.30996029 327.37795004 247.57417812 327.36749268 250.83892822 C327.37957728 252.26393548 327.37957728 252.26393548 327.39190602 253.71773076 C327.35300234 258.9015384 326.91969838 262.52928811 324 267 C318.84761326 271.92836993 314.63082736 274.25180538 307.49652386 274.24609566 C305.84613677 274.2520688 305.84613677 274.2520688 304.16240853 274.25816262 C302.95910592 274.25233693 301.75580331 274.24651125 300.51603699 274.24050903 C299.23361297 274.24221788 297.95118896 274.24392673 296.62990361 274.24568737 C293.07246252 274.25015948 289.51514186 274.2421591 285.95771611 274.23213124 C282.12068571 274.22349709 278.28366214 274.22641688 274.44662476 274.22793579 C267.79940875 274.22898466 261.152232 274.22270781 254.50502586 274.21146011 C244.89427848 274.1952084 235.28355008 274.18999744 225.67279045 274.18748413 C210.080108 274.18310651 194.48744648 274.16979559 178.89477539 274.15087891 C163.74764104 274.13252184 148.60051237 274.11836448 133.45336914 274.10986328 C132.51975314 274.10933783 131.58613714 274.10881239 130.62422975 274.10827102 C125.94056866 274.10566095 121.25690752 274.10313353 116.57324636 274.10064721 C77.71548292 274.07991263 38.85774284 274.04468527 0 274 C0 273.67 0 273.34 0 273 C100.65 273 201.3 273 305 273 C305.66 271.35 306.32 269.7 307 268 C307.36587314 267.11639738 307.73174627 266.23279476 308.10870647 265.32241631 C309.32502227 260.78843586 309.27929634 256.5157927 309.26069641 251.84133911 C309.26452196 250.820969 309.26834751 249.80059889 309.27228898 248.74930847 C309.2826042 245.33168052 309.27862958 241.91422104 309.2746582 238.49658203 C309.27900549 236.04565272 309.2841887 233.59472476 309.29014587 231.14379883 C309.30215373 225.17818716 309.30468745 219.21264164 309.30234561 213.24702395 C309.30056141 208.39692521 309.30231428 203.54684012 309.30657005 198.69674301 C309.30746284 197.66066663 309.30746284 197.66066663 309.30837366 196.60365941 C309.30958543 195.20038447 309.31079956 193.79710952 309.31201603 192.39383458 C309.32288891 179.23798719 309.32073033 166.08216544 309.31463119 152.9263166 C309.30946283 140.8978645 309.32071576 128.8694934 309.33972941 116.84105732 C309.35911395 104.48300545 309.36736269 92.1249919 309.36360615 79.76692474 C309.36169497 72.83173257 309.36417355 65.89660934 309.37832069 58.9614296 C309.39149065 52.43939831 309.38896608 45.91750231 309.37590981 39.39546204 C309.37354186 37.00255656 309.37628647 34.60963972 309.38453293 32.21674728 C309.39498333 28.94851904 309.38691288 25.6808368 309.3742218 22.41262817 C309.38159609 21.46728655 309.38897037 20.52194493 309.39656812 19.54795659 C309.34858546 13.66824581 308.34842977 9.39643732 306 4 C305.67 3.01 305.34 2.02 305 1 C204.35 1 103.7 1 0 1 C0 0.67 0 0.34 0 0 Z " fill="#0274B5" transform="translate(31,119)"/>
<path d="M0 0 C7.92894683 5.93504991 14.70850853 12.83926085 16.71484375 22.8125 C18.00769605 32.73027111 17.01318228 41.47300437 11.01171875 49.73828125 C4.31060996 57.55045471 -3.02491123 63.34009061 -13.55078125 64.3359375 C-21.30089314 64.41641634 -27.37291235 64.2006343 -34 60 C-34.69609375 59.56429687 -35.3921875 59.12859375 -36.109375 58.6796875 C-43.25302015 53.76507448 -49.34270667 46.70079 -51 38 C-51.91836455 26.494933 -51.1649806 17.05514921 -43.796875 7.91796875 C-32.43615437 -4.20836566 -15.06159758 -9.36329316 0 0 Z " fill="#000203" transform="translate(205,226)"/>
<path d="M0 0 C0 69.96 0 139.92 0 212 C-16 204 -16 204 -18 202 C-18.19312383 199.44151675 -18.26051843 196.99174324 -18.24050903 194.4324646 C-18.24221788 193.64263014 -18.24392673 192.85279569 -18.24568737 192.03902686 C-18.24899594 189.37797797 -18.23795623 186.71717821 -18.22705078 184.05615234 C-18.22648696 182.15440375 -18.22680265 180.25265471 -18.22793579 178.35090637 C-18.22851145 173.17553218 -18.21672276 168.00025002 -18.20278788 162.82489729 C-18.19031592 157.42099946 -18.18911282 152.0170997 -18.18673706 146.6131897 C-18.18051187 136.37447973 -18.16408703 126.13581228 -18.14403808 115.89712107 C-18.12171135 104.24313066 -18.11069378 92.58913825 -18.10064721 80.93513179 C-18.07972168 56.95673092 -18.04452558 32.97836784 -18 9 C-15.18926431 7.49667622 -12.37612794 5.99790265 -9.5625 4.5 C-8.76005859 4.07074219 -7.95761719 3.64148438 -7.13085938 3.19921875 C-6.36708984 2.79316406 -5.60332031 2.38710937 -4.81640625 1.96875 C-4.10943604 1.59169922 -3.40246582 1.21464844 -2.67407227 0.82617188 C-1 0 -1 0 0 0 Z " fill="#707070" transform="translate(452,150)"/>
<path d="M0 0 C27.73422083 6.54173268 53.08332713 26.58391404 70 49 C70.39928711 49.52432617 70.79857422 50.04865234 71.20996094 50.58886719 C76.29115989 57.30430031 80.95758042 64.25402687 85.25 71.5 C85.65734375 72.15830811 86.0646875 72.81661621 86.484375 73.49487305 C88.26591799 76.60819895 89.09491878 78.43918216 88.48828125 82.0234375 C86.76261285 85.47477429 84.94820984 88.83353957 82.9375 92.125 C82.53829346 92.78169678 82.13908691 93.43839355 81.7277832 94.11499023 C62.73497178 124.87715428 36.11013522 147.72507245 2 160 C1.34 160 0.68 160 0 160 C0 159.34 0 158.68 0 158 C1.28970703 157.30777344 1.28970703 157.30777344 2.60546875 156.6015625 C31.15950948 140.97404071 51.58139914 117.22949776 67.8125 89.375 C68.26375244 88.62903564 68.71500488 87.88307129 69.17993164 87.11450195 C71.63401902 82.79043193 71.63401902 82.79043193 71.49609375 77.92578125 C71.00238281 76.96027344 70.50867188 75.99476563 70 75 C69.44828125 73.87207031 68.8965625 72.74414062 68.328125 71.58203125 C52.57530437 42.45541907 29.66937232 17.25634391 0 2 C0 1.34 0 0.68 0 0 Z " fill="#CCD4D8" transform="translate(226,176)"/>
<path d="M0 0 C4.81169984 4.25219986 8.42300845 7.93660989 8.9375 14.625 C8.60370015 19.63199776 7.57200301 23.43378741 4 27.11328125 C-1.00684631 31.48384085 -4.02299226 32.73341062 -10.70703125 32.65625 C-15.91900499 32.09363814 -19.1355957 29.6448178 -22.6875 25.8125 C-26.06188149 20.75092776 -26.15667124 15.2681192 -25.3125 9.375 C-23.25566609 5.01223465 -20.43112835 2.18854789 -16.5625 -0.625 C-10.73436815 -2.41827134 -5.53849861 -2.71699932 0 0 Z " fill="#5E7A88" transform="translate(196.3125,240.625)"/>
</svg>
